HIERARCHY
ROOT Hips
{
	OFFSET 0.000000 0.000000 0.000000 
	CHANNELS 6 Xposition Yposition Zposition Zrotation Yrotation Xrotation
	JOINT LeftUpLeg
	{
		OFFSET 1.363060 -1.794630 0.839290 
		CHANNELS 3 Zrotation Yrotation Xrotation
		JOINT LeftLeg
		{
			OFFSET 2.448110 -6.726130 0.000000 
			CHANNELS 3 Zrotation Yrotation Xrotation
			JOINT LeftFoot
			{
				OFFSET 2.562200 -7.039590 0.000000 
				CHANNELS 3 Zrotation Yrotation Xrotation
				JOINT LeftToeBase
				{
					OFFSET 0.157640 -0.433110 2.322550 
					CHANNELS 3 Zrotation Yrotation Xrotation
					End Site
					{
						OFFSET 0.000000 0.000000 0.000000 
					}
				}
			}
		}
	}
	JOINT RightUpLeg
	{
		OFFSET -1.305520 -1.794630 0.839290 
		CHANNELS 3 Zrotation Yrotation Xrotation
		JOINT RightLeg
		{
			OFFSET -2.542530 -6.985550 0.000000 
			CHANNELS 3 Zrotation Yrotation Xrotation
			JOINT RightFoot
			{
				OFFSET -2.568260 -7.056230 0.000000 
				CHANNELS 3 Zrotation Yrotation Xrotation
				JOINT RightToeBase
				{
					OFFSET -0.164730 -0.452590 2.363150 
					CHANNELS 3 Zrotation Yrotation Xrotation
					End Site
					{
						OFFSET 0.000000 0.000000 0.000000 
					}
				}
			}
		}
	}
	JOINT Spine
	{
		OFFSET 0.028270 2.035590 -0.193380 
		CHANNELS 3 Zrotation Yrotation Xrotation
		JOINT Spine1
		{
			OFFSET 0.056720 2.048850 -0.042750 
			CHANNELS 3 Zrotation Yrotation Xrotation
			JOINT Neck1
			{
				OFFSET -0.054170 1.746240 0.172020 
				CHANNELS 3 Zrotation Yrotation Xrotation
				JOINT Head
				{
					OFFSET 0.104070 1.761360 -0.123970 
					CHANNELS 3 Zrotation Yrotation Xrotation
					End Site
					{
						OFFSET 0.000000 0.000000 0.000000 
					}
				}
			}
			JOINT LeftArm
			{
				OFFSET 3.362410 1.200890 -0.311210 
				CHANNELS 3 Zrotation Yrotation Xrotation
				JOINT LeftForeArm
				{
					OFFSET 4.983000 -0.000000 -0.000000 
					CHANNELS 3 Zrotation Yrotation Xrotation
					JOINT LeftHand
					{
						OFFSET 3.483560 -0.000000 -0.000000 
						CHANNELS 3 Zrotation Yrotation Xrotation
						JOINT LeftHandIndex1
						{
							OFFSET 0.715260 -0.000000 -0.000000 
							CHANNELS 3 Zrotation Yrotation Xrotation
							End Site
							{
								OFFSET 0.000000 0.000000 0.000000 
							}
						}
					}
				}
			}
			JOINT RightArm
			{
				OFFSET -3.136600 1.374050 -0.404650 
				CHANNELS 3 Zrotation Yrotation Xrotation
				JOINT RightForeArm
				{
					OFFSET -5.241900 -0.000000 -0.000000 
					CHANNELS 3 Zrotation Yrotation Xrotation
					JOINT RightHand
					{
						OFFSET -3.444170 -0.000000 -0.000000 
						CHANNELS 3 Zrotation Yrotation Xrotation
						JOINT RightHandIndex1
						{
							OFFSET -0.622530 -0.000000 -0.000000 
							CHANNELS 3 Zrotation Yrotation Xrotation
							End Site
							{
								OFFSET 0.000000 0.000000 0.000000 
							}
						}
					}
				}
			}
		}
	}
}
MOTION
Frames: 10
Frame Time: 0.041667
2.246550 17.993740 -43.729166 -166.933860 87.405381 -161.768697 -10.905120 -11.284007 -29.175207 2.761339 16.444093 42.784216 -4.396185 14.277023 -2.601148 1.418500 -7.532200 -21.302000 37.542559 19.820695 6.868882 3.857864 -4.024051 14.487162 7.709688 -25.918962 -9.188009 -0.624700 -5.057700 14.073200 1.081908 2.836524 2.526194 -4.444259 1.671048 -12.099329 23.368260 -11.256934 4.779006 6.563400 -5.404100 3.259900 -88.644215 21.602336 22.533885 27.189779 -27.299631 -8.150086 1.914031 0.441899 13.115129 -7.125000 0.000000 0.000000 80.971925 5.616294 33.915717 -24.715549 28.206565 -7.790364 1.330073 0.491298 15.932970 7.125000 0.000000 0.000000 
2.431282 17.987812 -43.747782 -167.541184 88.097712 -162.449999 -10.795361 -11.753840 -29.292032 1.935635 15.821794 40.153251 -4.846782 15.329931 -2.479068 1.601100 -7.980400 -22.654500 37.589450 20.233944 8.397923 3.977578 -3.580638 13.528563 7.886102 -26.356727 -8.841154 -0.705200 -5.367500 14.959700 0.979704 2.842511 2.742010 -4.455975 1.706504 -11.995093 23.389102 -10.981493 4.736088 6.580600 -5.265900 3.236500 -89.128612 21.816389 22.210916 26.980189 -27.077520 -8.041208 1.935716 0.435565 13.331325 -7.125000 0.000000 0.000000 80.972099 6.670884 34.861697 -25.117420 28.609742 -7.989821 1.321908 0.492843 15.879204 7.125000 0.000000 0.000000 
2.622773 17.998127 -43.764145 -166.312880 88.622988 -161.301996 -10.427284 -12.364685 -29.173567 1.108395 15.077232 37.368035 -5.112255 15.899435 -2.158290 1.606800 -7.994100 -22.696100 36.842149 17.503351 8.201841 4.024891 -3.213638 12.842124 7.071620 -23.813915 -7.036941 -0.681400 -5.278000 14.703300 1.074456 2.859225 2.951358 -4.443094 1.728506 -11.880615 23.226899 -10.820362 4.676508 6.533200 -5.191700 3.215700 -89.632459 21.954270 22.010684 26.744693 -26.823644 -7.914971 1.955211 0.421560 13.536341 -7.125000 0.000000 0.000000 80.748174 7.639923 36.123250 -25.514379 29.012609 -8.205035 1.308249 0.513916 15.543124 7.125000 0.000000 0.000000 
2.816398 18.004886 -43.781456 -163.938301 89.062750 -158.977616 -9.950424 -13.048160 -29.001171 0.327720 14.274104 34.557886 -5.310937 16.311102 -1.554207 1.553800 -7.867300 -22.311900 36.422032 15.786901 8.637585 4.117129 -2.751844 11.914756 6.503152 -22.049154 -6.116358 -0.728400 -5.453200 15.205900 1.191999 2.979612 3.068713 -4.443628 1.785646 -11.795664 23.110664 -10.652722 4.703905 6.506400 -5.110200 3.201300 -89.870582 22.168165 22.401269 26.563246 -26.602621 -7.810431 1.957685 0.413412 13.513209 -7.125000 0.000000 0.000000 80.709186 8.265167 37.223004 -26.278892 29.845016 -8.692574 1.274550 0.571466 14.612646 7.125000 0.000000 0.000000 
3.009668 18.014490 -43.799597 -162.874345 89.591924 -157.892698 -9.502098 -13.843776 -28.856739 -0.385231 13.479791 31.830870 -5.639586 17.051386 -0.975438 1.529100 -7.807300 -22.130200 35.922014 15.348918 9.684788 4.284223 -2.087716 10.334425 6.534606 -22.069856 -4.708557 -0.589400 -4.915500 13.667700 1.139849 3.051896 3.095526 -4.461925 1.829109 -11.736156 22.940124 -10.483765 4.644864 6.429800 -5.034900 3.132900 -90.045903 22.463415 22.742166 26.401422 -26.409431 -7.725960 1.974076 0.400525 13.416677 -7.125000 0.000000 0.000000 80.636694 8.935651 38.223054 -26.712989 30.267109 -8.913385 1.268399 0.569122 13.923669 7.125000 0.000000 0.000000 
3.202226 18.025754 -43.820940 20.304355 89.968511 25.378477 -8.816904 -14.987972 -28.642849 -1.026466 12.691178 29.263622 -5.902344 17.606404 -0.939980 1.303300 -7.232300 -20.405400 35.667227 14.877249 11.028505 4.502684 -1.193166 8.130657 6.605639 -22.349676 -2.788255 -0.367800 -3.895500 10.782800 0.841695 3.044420 3.109988 -4.694472 1.787654 -11.604167 22.931674 -10.229534 4.468241 6.396800 -4.920900 3.021800 -90.079256 22.692298 22.678651 26.197942 -26.202868 -7.633856 2.022502 0.376575 13.630433 -7.125000 0.000000 0.000000 80.747209 9.625052 39.326749 -27.068352 30.567759 -9.040064 1.272958 0.533139 13.105323 7.125000 0.000000 0.000000 
3.392056 18.008324 -43.844891 -144.102887 89.651367 -138.874649 -7.750834 -16.506721 -28.138537 -1.507056 11.846714 26.950787 -6.327492 18.480847 -1.140423 1.436300 -7.577300 -21.437500 36.235401 14.131932 14.356086 4.956159 0.937109 2.993513 6.300412 -21.889978 -0.890963 -0.616300 -5.024400 13.978200 1.167832 2.985645 3.061579 -4.827841 1.597376 -11.489078 22.923963 -10.010166 4.314314 6.405600 -4.827000 2.943300 -90.397571 22.738536 22.304125 25.871006 -25.883228 -7.486787 2.078561 0.356886 14.244266 -7.125000 0.000000 0.000000 80.758626 10.016121 39.987154 -27.656488 31.123180 -9.328094 1.257586 0.514698 13.011716 7.125000 0.000000 0.000000 
3.588053 18.001922 -43.862202 -118.431824 88.340350 -113.216620 -6.551981 -18.561472 -27.196913 -1.853923 10.961335 24.914027 -6.991628 19.817700 -1.835943 1.872400 -8.595100 -24.536700 36.741732 13.947286 14.770144 4.975680 1.026596 2.575586 6.216113 -21.789905 -0.747449 -0.600600 -4.961000 13.797300 1.741085 2.961162 3.137139 -5.040542 1.395177 -11.317595 22.938617 -9.879249 4.234263 6.423700 -4.768000 2.917700 -90.662933 22.753694 22.261463 25.628661 -25.628464 -7.363170 2.097567 0.345068 14.602841 -7.125000 0.000000 0.000000 80.604703 10.680627 40.698821 -28.304854 31.753358 -9.715739 1.230562 0.544181 13.320883 7.125000 0.000000 0.000000 
3.785591 18.000499 -43.877142 -94.342473 87.180157 -89.090441 -5.098798 -21.321632 -26.498985 -2.204990 10.314705 23.105032 -7.442605 20.673476 -3.438252 1.608700 -7.998500 -22.709500 37.046403 13.677659 15.223779 4.961220 1.026630 2.600320 6.125871 -21.575088 -0.541363 -0.446800 -4.288600 11.890100 1.967458 3.209560 3.169253 -5.287850 1.497097 -11.168367 22.853926 -9.780235 4.251084 6.370200 -4.716000 2.898300 -90.691625 22.920670 22.511960 25.531019 -25.504874 -7.305755 2.101332 0.335194 14.740201 -7.125000 0.000000 0.000000 80.686446 11.202621 41.298080 -28.875319 32.287838 -10.039388 1.212476 0.546113 13.474985 7.125000 0.000000 0.000000 
3.981113 17.996586 -43.893979 -78.271972 86.299374 -72.907017 -3.213014 -25.110538 -25.900932 -2.545786 9.857743 21.428882 -8.102061 22.034828 -6.218112 1.091700 -6.640000 -18.653100 37.190007 13.316933 15.770758 4.948270 1.076413 2.667920 6.006485 -21.179452 -0.664399 -0.440500 -4.258900 11.806200 2.018552 3.503794 3.145960 -5.472119 1.695253 -11.067926 22.724474 -9.686808 4.284420 6.282400 -4.664200 2.874200 -90.699611 23.034605 22.538938 25.411705 -25.365929 -7.238828 2.118583 0.310480 15.072169 -7.125000 0.000000 0.000000 80.897342 11.591216 41.955987 -29.530957 32.916417 -10.448873 1.188102 0.567090 13.386616 7.125000 0.000000 0.000000 
